<svg width="209" height="87" viewBox="0 0 209 87" fill="none" xmlns="http://www.w3.org/2000/svg">
<path d="M9.63875 3.29599C13.1268 3.29599 15.8628 4.01599 17.8468 5.45599C19.8628 6.86399 20.8708 9.07199 20.8708 12.08C20.8708 13.904 20.4548 15.488 19.6228 16.832C18.7908 18.176 17.6228 19.232 16.1188 20C14.6468 20.768 12.9028 21.2 10.8868 21.296L10.2148 18.896C12.5508 18.96 14.6468 19.376 16.5028 20.144C18.3588 20.912 19.8308 21.984 20.9188 23.36C22.0068 24.736 22.5508 26.368 22.5508 28.256C22.5508 29.984 22.2308 31.472 21.5908 32.72C20.9508 33.936 20.0868 34.944 18.9988 35.744C17.9108 36.512 16.6788 37.088 15.3028 37.472C13.9268 37.824 12.5028 38 11.0308 38H0.710754V3.29599H9.63875ZM10.5988 18.512C12.5188 18.512 13.9108 17.984 14.7748 16.928C15.6388 15.84 16.0708 14.528 16.0708 12.992C16.0708 11.168 15.5108 9.83999 14.3908 9.00799C13.2708 8.17599 11.7668 7.75999 9.87875 7.75999H5.36675V18.512H10.5988ZM10.7908 33.68C12.0708 33.68 13.2388 33.488 14.2948 33.104C15.3828 32.72 16.2308 32.128 16.8388 31.328C17.4788 30.528 17.7988 29.52 17.7988 28.304C17.7988 26.96 17.4308 25.904 16.6948 25.136C15.9908 24.368 15.0788 23.824 13.9588 23.504C12.8388 23.152 11.6868 22.976 10.5028 22.976H5.36675V33.68H10.7908ZM27.5506 27.872C27.5506 25.888 28.0146 24.096 28.9426 22.496C29.9026 20.896 31.2146 19.632 32.8786 18.704C34.5426 17.776 36.4306 17.312 38.5426 17.312C40.7186 17.312 42.6226 17.776 44.2546 18.704C45.8866 19.632 47.1506 20.896 48.0466 22.496C48.9426 24.096 49.3906 25.888 49.3906 27.872C49.3906 29.856 48.9426 31.664 48.0466 33.296C47.1506 34.896 45.8706 36.16 44.2066 37.088C42.5746 38.016 40.6706 38.48 38.4946 38.48C36.3826 38.48 34.4946 38.048 32.8306 37.184C31.1986 36.288 29.9026 35.056 28.9426 33.488C28.0146 31.888 27.5506 30.016 27.5506 27.872ZM32.0146 27.92C32.0146 29.2 32.3026 30.368 32.8786 31.424C33.4546 32.448 34.2226 33.264 35.1826 33.872C36.1746 34.48 37.2626 34.784 38.4466 34.784C39.6946 34.784 40.7986 34.48 41.7586 33.872C42.7506 33.264 43.5186 32.448 44.0626 31.424C44.6066 30.368 44.8786 29.2 44.8786 27.92C44.8786 26.64 44.6066 25.488 44.0626 24.464C43.5186 23.408 42.7506 22.576 41.7586 21.968C40.7986 21.328 39.6946 21.008 38.4466 21.008C37.2306 21.008 36.1266 21.328 35.1346 21.968C34.1746 22.608 33.4066 23.456 32.8306 24.512C32.2866 25.536 32.0146 26.672 32.0146 27.92ZM55.4349 0.847992H59.8989V38H55.4349V0.847992ZM67.6224 0.847992H72.0864V38H67.6224V0.847992ZM81.4899 47.552L94.5939 18.128H98.7219L85.9059 47.552H81.4899ZM86.3859 38.144L76.8339 18.128H81.8739L89.8899 35.888L86.3859 38.144ZM116.249 18.128L122.105 31.52L121.241 31.616L126.713 18.128H131.081L121.961 39.2L115.577 25.568L109.769 39.2L100.553 18.128H104.921L111.113 32.144L109.577 31.856L113.993 21.584L112.409 18.128H116.249ZM133.676 27.872C133.676 25.888 134.14 24.096 135.068 22.496C136.028 20.896 137.34 19.632 139.004 18.704C140.668 17.776 142.556 17.312 144.668 17.312C146.844 17.312 148.748 17.776 150.38 18.704C152.012 19.632 153.276 20.896 154.172 22.496C155.068 24.096 155.516 25.888 155.516 27.872C155.516 29.856 155.068 31.664 154.172 33.296C153.276 34.896 151.996 36.16 150.332 37.088C148.7 38.016 146.796 38.48 144.62 38.48C142.508 38.48 140.62 38.048 138.956 37.184C137.324 36.288 136.028 35.056 135.068 33.488C134.14 31.888 133.676 30.016 133.676 27.872ZM138.14 27.92C138.14 29.2 138.428 30.368 139.004 31.424C139.58 32.448 140.348 33.264 141.308 33.872C142.3 34.48 143.388 34.784 144.572 34.784C145.82 34.784 146.924 34.48 147.884 33.872C148.876 33.264 149.644 32.448 150.188 31.424C150.732 30.368 151.004 29.2 151.004 27.92C151.004 26.64 150.732 25.488 150.188 24.464C149.644 23.408 148.876 22.576 147.884 21.968C146.924 21.328 145.82 21.008 144.572 21.008C143.356 21.008 142.252 21.328 141.26 21.968C140.3 22.608 139.532 23.456 138.956 24.512C138.412 25.536 138.14 26.672 138.14 27.92ZM159.832 27.872C159.832 25.888 160.296 24.096 161.224 22.496C162.184 20.896 163.496 19.632 165.16 18.704C166.824 17.776 168.712 17.312 170.824 17.312C173 17.312 174.904 17.776 176.536 18.704C178.168 19.632 179.432 20.896 180.328 22.496C181.224 24.096 181.672 25.888 181.672 27.872C181.672 29.856 181.224 31.664 180.328 33.296C179.432 34.896 178.152 36.16 176.488 37.088C174.856 38.016 172.952 38.48 170.776 38.48C168.664 38.48 166.776 38.048 165.112 37.184C163.48 36.288 162.184 35.056 161.224 33.488C160.296 31.888 159.832 30.016 159.832 27.872ZM164.296 27.92C164.296 29.2 164.584 30.368 165.16 31.424C165.736 32.448 166.504 33.264 167.464 33.872C168.456 34.48 169.544 34.784 170.728 34.784C171.976 34.784 173.08 34.48 174.04 33.872C175.032 33.264 175.8 32.448 176.344 31.424C176.888 30.368 177.16 29.2 177.16 27.92C177.16 26.64 176.888 25.488 176.344 24.464C175.8 23.408 175.032 22.576 174.04 21.968C173.08 21.328 171.976 21.008 170.728 21.008C169.512 21.008 168.408 21.328 167.416 21.968C166.456 22.608 165.688 23.456 165.112 24.512C164.568 25.536 164.296 26.672 164.296 27.92ZM195.78 38.48C193.956 38.48 192.292 38.048 190.788 37.184C189.316 36.288 188.148 35.04 187.284 33.44C186.42 31.808 185.988 29.936 185.988 27.824C185.988 25.616 186.436 23.728 187.332 22.16C188.26 20.592 189.508 19.392 191.076 18.56C192.644 17.728 194.404 17.312 196.356 17.312C197.924 17.312 199.412 17.648 200.82 18.32C202.26 18.992 203.38 19.92 204.18 21.104L203.988 22.688V0.847992H208.404V38H203.94V33.056L204.42 34.304C203.492 35.52 202.292 36.528 200.82 37.328C199.348 38.096 197.668 38.48 195.78 38.48ZM197.172 34.688C198.356 34.688 199.412 34.48 200.34 34.064C201.268 33.616 202.036 33.008 202.644 32.24C203.252 31.472 203.684 30.56 203.94 29.504V25.76C203.684 24.8 203.22 23.968 202.548 23.264C201.908 22.528 201.124 21.952 200.196 21.536C199.3 21.088 198.292 20.864 197.172 20.864C195.956 20.864 194.836 21.168 193.812 21.776C192.82 22.352 192.02 23.152 191.412 24.176C190.804 25.2 190.5 26.384 190.5 27.728C190.5 29.04 190.804 30.224 191.412 31.28C192.02 32.304 192.836 33.136 193.86 33.776C194.884 34.384 195.988 34.688 197.172 34.688ZM83.573 51.296V86H78.965V70.784H60.773V86H56.117V51.296H60.773V66.368H78.965V51.296H83.573ZM101.682 86.48C99.4101 86.48 97.4581 86.032 95.8261 85.136C94.1941 84.208 92.9301 82.96 92.0341 81.392C91.1701 79.792 90.7381 77.968 90.7381 75.92C90.7381 73.968 91.2341 72.192 92.2261 70.592C93.2181 68.992 94.5461 67.712 96.2101 66.752C97.8741 65.792 99.7301 65.312 101.778 65.312C104.402 65.312 106.578 66.08 108.306 67.616C110.034 69.152 111.202 71.264 111.81 73.952L95.4421 79.712L94.3861 77.072L107.826 72.176L106.866 72.8C106.482 71.744 105.842 70.832 104.946 70.064C104.05 69.264 102.882 68.864 101.442 68.864C100.226 68.864 99.1381 69.168 98.1781 69.776C97.2181 70.352 96.4661 71.152 95.9221 72.176C95.3781 73.2 95.1061 74.368 95.1061 75.68C95.1061 77.056 95.3941 78.272 95.9701 79.328C96.5461 80.352 97.3301 81.168 98.3221 81.776C99.3461 82.352 100.498 82.64 101.778 82.64C102.642 82.64 103.474 82.48 104.274 82.16C105.106 81.84 105.874 81.424 106.578 80.912L108.642 84.224C107.65 84.896 106.53 85.44 105.282 85.856C104.066 86.272 102.866 86.48 101.682 86.48ZM121.388 66.128L121.82 71.888L121.58 71.12C122.092 69.904 122.828 68.88 123.788 68.048C124.78 67.184 125.804 66.528 126.86 66.08C127.948 65.6 128.892 65.36 129.692 65.36L129.452 69.776C127.948 69.68 126.62 69.968 125.468 70.64C124.348 71.312 123.452 72.208 122.78 73.328C122.14 74.448 121.82 75.648 121.82 76.928V86H117.404V66.128H121.388ZM132.879 75.872C132.879 73.888 133.343 72.096 134.271 70.496C135.231 68.896 136.543 67.632 138.207 66.704C139.871 65.776 141.759 65.312 143.871 65.312C146.047 65.312 147.951 65.776 149.583 66.704C151.215 67.632 152.479 68.896 153.375 70.496C154.271 72.096 154.719 73.888 154.719 75.872C154.719 77.856 154.271 79.664 153.375 81.296C152.479 82.896 151.199 84.16 149.535 85.088C147.903 86.016 145.999 86.48 143.823 86.48C141.711 86.48 139.823 86.048 138.159 85.184C136.527 84.288 135.231 83.056 134.271 81.488C133.343 79.888 132.879 78.016 132.879 75.872ZM137.343 75.92C137.343 77.2 137.631 78.368 138.207 79.424C138.783 80.448 139.551 81.264 140.511 81.872C141.503 82.48 142.591 82.784 143.775 82.784C145.023 82.784 146.127 82.48 147.087 81.872C148.079 81.264 148.847 80.448 149.391 79.424C149.935 78.368 150.207 77.2 150.207 75.92C150.207 74.64 149.935 73.488 149.391 72.464C148.847 71.408 148.079 70.576 147.087 69.968C146.127 69.328 145.023 69.008 143.775 69.008C142.559 69.008 141.455 69.328 140.463 69.968C139.503 70.608 138.735 71.456 138.159 72.512C137.615 73.536 137.343 74.672 137.343 75.92Z" fill="url(#paint0_linear_29_3)" style="mix-blend-mode:exclusion"/>
<defs>
<linearGradient id="paint0_linear_29_3" x1="71.5" y1="-14" x2="121.5" y2="93.5" gradientUnits="userSpaceOnUse">
<stop stop-color="#F2AF9E"/>
<stop offset="0.158654" stop-color="#EC5C5D"/>
<stop offset="0.216346" stop-color="#C83C88"/>
<stop offset="0.5" stop-color="#E8D266"/>
<stop offset="0.802885" stop-color="#124CFB"/>
<stop offset="0.913462" stop-color="#81BCFE"/>
</linearGradient>
</defs>
</svg>
